PathFileType	4	(X/Y/Z)	/Users/itak/Documents/Research/Walk-IL/dataset/trc/00341_00011.trc
DataRate	CameraRate	NumFrames	NumMarkers	Units	OrigDataRate	OrigDataStartFrame	OrigNumFrames
100.000000	100.000000	4	53	mm	100.000000	87	697
Frame#	Time	RPSI			LPSI			L3			STRN			T10			C7			CLAV			RBAK			LBAK			LSHO			LUPA			LAEL			LAOL			LWTS			LWPS			LFRA			LIFD			LHPS			LHTS			RSHO			RUPA			RAEL			RAOL			RWTS			RWPS			RFRA			RIFD			RHTS			RHPS			RBHD			LFHD			RFHD			LBHD			LHIP			RHIP			RASI			LASI			LKNE			LTHI			LANK			LTIP			LTOE			LMT1			LMT5			LHEE			RKNE			RTHI			RANK			RTIP			RTOE			RMT1			RMT5			RHEE			
		X1	Y1	Z1	X2	Y2	Z2	X3	Y3	Z3	X4	Y4	Z4	X5	Y5	Z5	X6	Y6	Z6	X7	Y7	Z7	X8	Y8	Z8	X9	Y9	Z9	X10	Y10	Z10	X11	Y11	Z11	X12	Y12	Z12	X13	Y13	Z13	X14	Y14	Z14	X15	Y15	Z15	X16	Y16	Z16	X17	Y17	Z17	X18	Y18	Z18	X19	Y19	Z19	X20	Y20	Z20	X21	Y21	Z21	X22	Y22	Z22	X23	Y23	Z23	X24	Y24	Z24	X25	Y25	Z25	X26	Y26	Z26	X27	Y27	Z27	X28	Y28	Z28	X29	Y29	Z29	X30	Y30	Z30	X31	Y31	Z31	X32	Y32	Z32	X33	Y33	Z33	X34	Y34	Z34	X35	Y35	Z35	X36	Y36	Z36	X37	Y37	Z37	X38	Y38	Z38	X39	Y39	Z39	X40	Y40	Z40	X41	Y41	Z41	X42	Y42	Z42	X43	Y43	Z43	X44	Y44	Z44	X45	Y45	Z45	X46	Y46	Z46	X47	Y47	Z47	X48	Y48	Z48	X49	Y49	Z49	X50	Y50	Z50	X51	Y51	Z51	X52	Y52	Z52	X53	Y53	Z53	

88	0.87	-39.61338806152344	966.1917114257812	1210.014526367188	-48.19894790649414	966.0626831054688	1081.141967773438	-48.69063568115234	1029.462158203125	1158.788330078125	193.3596496582031	1205.525268554688	1119.21240234375	-52.91708374023438	1147.960815429688	1161.89208984375	-1.610006809234619	1391.715087890625	1132.805908203125	152.2533721923828	1331.716430664062	1115.479248046875	-41.87216567993164	1258.184936523438	1214.559448242188	-29.59811973571777	1351.915649414062	1036.742919921875	45.32304763793945	1362.765380859375	966.561767578125	4.691931247711182	1245.0791015625	909.6314086914062	-4.594814777374268	1041.512573242188	898.2573852539062	-49.23312377929688	1034.598510742188	969.55419921875	75.60258483886719	790.286865234375	916.8634033203125	20.8938102722168	783.502685546875	874.6298828125	-2.940528869628906	936.2423095703125	887.9352416992188	62.56041717529297	627.5786743164062	924.4176635742188	12.20714473724365	713.6163940429688	882.6611938476562	74.49349975585938	711.1375732421875	899.565673828125	81.08724212646484	1385.147705078125	1284.07470703125	81.03993988037109	1324.880004882812	1352.520141601562	102.8045883178711	1061.88623046875	1409.8359375	42.79440307617188	1047.49609375	1337.780883789062	195.7572021484375	827.063720703125	1359.495239257812	180.9031524658203	820.1951293945312	1434.165771484375	130.3443908691406	995.7093505859375	1418.656494140625	204.0461578369141	655.3170166015625	1376.066162109375	225.966552734375	726.24755859375	1374.32421875	192.8068084716797	734.1280517578125	1435.368408203125	60.18748474121094	1597.269287109375	1191.141357421875	212.7989501953125	1597.804809570312	1049.037353515625	217.4764404296875	1603.574584960938	1149.903198242188	26.2491397857666	1585.088745117188	1051.149536132812	38.13825607299805	919.0050048828125	971.7702026367188	41.74374008178711	904.7935180664062	1313.813720703125	145.8866729736328	931.9172973632812	1274.636962890625	155.8690338134766	941.9214477539062	1035.341796875	264.9365234375	504.3824462890625	952.1505126953125	208.5718994140625	631.9959106445312	948.9700317382812	161.4197845458984	76.51361846923828	982.3970336914062	213.6603546142578	278.1640014648438	952.8916015625	370.7677612304688	58.04532623291016	1006.443725585938	311.1451721191406	51.14805603027344	1058.53271484375	280.7082824707031	60.13124465942383	948.5983276367188	141.3682861328125	79.95999908447266	1054.611572265625	18.07969665527344	447.1003112792969	1291.555908203125	88.74734497070312	699.9078979492188	1314.344604492188	-137.7928161621094	53.48312377929688	1262.416381835938	-0.7805406451225281	326.6470947265625	1278.63427734375	56.43115997314453	44.6464958190918	1221.253051757812	3.951197385787964	41.28321075439453	1175.848876953125	-39.79626846313477	36.63776397705078	1286.255004882812	-185.2944946289062	60.83467864990234	1211.654541015625	
89	0.88	-35.21464920043945	965.5909423828125	1209.17724609375	-43.75922775268555	965.6548461914062	1080.30712890625	-44.26235580444336	1029.0576171875	1158.176635742188	197.9002075195312	1204.667602539062	1118.5087890625	-48.3203125	1147.376831054688	1161.599609375	3.04449462890625	1391.053344726562	1132.681762695312	156.8427886962891	1330.9033203125	1114.881225585938	-37.10128021240234	1257.578491210938	1214.526245117188	-25.26891136169434	1351.257446289062	1036.751342773438	49.41093063354492	1361.97119140625	966.2937622070312	7.872659206390381	1244.41748046875	909.8153076171875	-2.913902759552002	1040.957763671875	898.9088745117188	-46.66317749023438	1034.3935546875	970.7589111328125	75.44812774658203	789.109619140625	916.5565185546875	20.13229370117188	782.75341796875	875.054443359375	-2.233315229415894	935.6827392578125	888.5733642578125	61.08320617675781	626.5819091796875	924.0469970703125	10.87477874755859	712.953125	883.169921875	73.37061309814453	709.9118041992188	899.2993774414062	86.20182800292969	1384.47802734375	1283.662231445312	86.3773193359375	1324.29150390625	1352.194580078125	108.7702026367188	1061.430419921875	1410.081909179688	48.37270736694336	1046.8046875	1338.3203125	202.2515411376953	826.9525756835938	1359.103759765625	187.6590423583984	819.8860473632812	1433.814086914062	136.4936981201172	995.266845703125	1418.731689453125	211.1889038085938	655.219482421875	1375.539916992188	232.7923126220703	726.1441040039062	1373.677124023438	199.8989715576172	733.9077758789062	1434.858032226562	65.66282653808594	1596.606567382812	1190.912353515625	216.6781311035156	1596.9638671875	1047.133544921875	222.4275817871094	1602.8583984375	1147.896240234375	30.18436813354492	1584.201538085938	1051.336791992188	42.5579719543457	918.6945190429688	970.9716796875	46.86907958984375	903.3936157226562	1312.592895507812	150.1516265869141	930.928955078125	1273.960571289062	160.3635864257812	941.2445678710938	1034.638305664062	268.2014770507812	503.2596435546875	951.3302001953125	212.2377777099609	631.3402099609375	947.8267822265625	181.0595550537109	72.30091094970703	981.4614868164062	225.0658416748047	275.5398559570312	951.7948608398438	391.2472229003906	59.68724822998047	1002.782775878906	332.429931640625	51.00893783569336	1055.496459960938	300.3240051269531	59.55448150634766	946.0274658203125	161.9435729980469	74.87228393554688	1054.009887695312	19.9841365814209	446.595703125	1290.772827148438	92.537109375	699.1403198242188	1312.91796875	-137.7101593017578	53.69217681884766	1262.287963867188	0.4417800903320312	326.2705078125	1278.08447265625	56.47658157348633	44.59432601928711	1221.206909179688	3.94022274017334	41.18488693237305	1175.72998046875	-39.76571655273438	36.68980407714844	1286.182983398438	-185.2421264648438	61.19417190551758	1211.480590820312	
90	0.89	-30.71272659301758	964.8984985351562	1208.255615234375	-39.22786331176758	965.0961303710938	1079.384521484375	-39.74199295043945	1028.530517578125	1157.429931640625	202.5112609863281	1203.672119140625	1117.6962890625	-43.65395355224609	1146.689575195312	1161.161376953125	7.827381134033203	1390.296875	1132.395141601562	161.5325317382812	1329.963500976562	1114.179565429688	-32.27686309814453	1256.87353515625	1214.314331054688	-20.79476928710938	1350.51123046875	1036.5849609375	53.67269134521484	1361.06884765625	965.8768920898438	11.29187774658203	1243.66064453125	909.8145751953125	-0.9454960823059082	1040.314819335938	899.3839111328125	-43.88701629638672	1034.109619140625	971.7363891601562	75.38091278076172	787.7990112304688	916.251708984375	19.55337142944336	781.9263916015625	875.380859375	-1.266313076019287	935.0302124023438	889.0650634765625	59.80861663818359	625.6514892578125	923.4680786132812	9.668432235717773	712.207275390625	883.6072998046875	72.34159088134766	708.5835571289062	899.0355224609375	91.37579345703125	1383.668334960938	1283.125732421875	91.74382781982422	1323.546630859375	1351.730224609375	114.8496475219727	1060.826904296875	1410.16748046875	54.04744720458984	1045.944702148438	1338.703125	208.9236907958984	826.721435546875	1358.510864257812	194.5688934326172	819.4369506835938	1433.262329101562	142.78662109375	994.673583984375	1418.646728515625	218.4957122802734	654.9998168945312	1374.812133789062	239.8015747070312	725.9451904296875	1372.832641601562	207.1928405761719	733.5689697265625	1434.150756835938	71.21884918212891	1595.786743164062	1190.564453125	220.643798828125	1596.061645507812	1045.173095703125	227.4613952636719	1602.072143554688	1145.819946289062	34.2437744140625	1583.171020507812	1051.419067382812	47.07037734985352	918.1270141601562	970.1035766601562	52.28945922851562	901.8633422851562	1311.228637695312	154.5231475830078	929.8728637695312	1273.174072265625	164.9838104248047	940.4019775390625	1033.802490234375	271.3013305664062	501.8074035644531	950.5484619140625	215.7226867675781	630.2899780273438	946.6935424804688	200.8390808105469	68.43071746826172	980.1677856445312	236.5740203857422	272.947021484375	950.5285034179688	411.6287841796875	61.90230178833008	998.8939819335938	353.6700134277344	51.347900390625	1052.192993164062	319.9786987304688	59.4433708190918	943.2017822265625	182.5982360839844	70.10899353027344	1052.997314453125	22.00088500976562	446.0725708007812	1289.9814453125	96.77920532226562	698.0663452148438	1311.280029296875	-137.6356658935547	53.90988922119141	1262.170532226562	1.736497640609741	325.847900390625	1277.5234375	56.5009765625	44.52344512939453	1221.13671875	3.968607187271118	41.12489700317383	1175.660766601562	-39.72029495239258	36.73529815673828	1286.111694335938	-185.2003784179688	61.55963897705078	1211.323974609375	
91	0.9	-26.1015567779541	964.1192626953125	1207.250610351562	-34.59767150878906	964.412841796875	1078.379760742188	-35.11115646362305	1027.871337890625	1156.557983398438	207.1945495605469	1202.555908203125	1116.779174804688	-38.92661285400391	1145.907348632812	1160.587890625	12.72448539733887	1389.451171875	1131.944091796875	166.3164672851562	1328.91015625	1113.369873046875	-27.4024829864502	1256.073974609375	1213.9296875	-16.17983818054199	1349.6806640625	1036.237915039062	58.09514999389648	1360.065063476562	965.3101196289062	14.94602870941162	1242.811645507812	909.6185302734375	1.316232085227966	1039.58447265625	899.6737670898438	-40.91509628295898	1033.749877929688	972.4672241210938	75.4156494140625	786.3460083007812	915.9697875976562	19.18256378173828	781.0216674804688	875.6065063476562	-0.02189680933952332	934.293701171875	889.4008178710938	58.69056701660156	624.7413330078125	922.7825317382812	8.613986015319824	711.3910522460938	883.9644775390625	71.43778228759766	707.166748046875	898.7722778320312	96.60134887695312	1382.727905273438	1282.462646484375	97.13663482666016	1322.659545898438	1351.125	121.0387344360352	1060.087768554688	1410.069458007812	59.8273811340332	1044.92529296875	1338.900268554688	215.7514953613281	826.37109375	1357.705444335938	201.6248321533203	818.8634643554688	1432.510864257812	149.2155609130859	993.94384765625	1418.383544921875	225.9608154296875	654.66943359375	1373.876586914062	246.9942779541016	725.6661376953125	1371.802734375	214.6732177734375	733.1237182617188	1433.246826171875	76.85840606689453	1594.827270507812	1190.091674804688	224.7114105224609	1595.090087890625	1043.153686523438	232.5857238769531	1601.207885742188	1143.680786132812	38.4301643371582	1582.01953125	1051.388305664062	51.67980194091797	917.3223876953125	969.1694946289062	57.96716690063477	900.220947265625	1309.726318359375	159.0012817382812	928.7492065429688	1272.283447265625	169.7310180664062	939.4039306640625	1032.853881835938	274.2801513671875	500.041259765625	949.8065795898438	219.0507354736328	628.8662109375	945.5768432617188	220.6638793945312	64.95693969726562	978.54833984375	248.1466522216797	270.4431457519531	949.1072387695312	431.8099975585938	64.76079559326172	994.8079833984375	374.7683410644531	52.2441291809082	1048.665893554688	339.573974609375	59.84889602661133	940.1654663085938	203.2348937988281	65.73374176025391	1051.613891601562	24.10346031188965	445.5423278808594	1289.205688476562	101.3939743041992	696.6766357421875	1309.536376953125	-137.5653076171875	54.15315628051758	1262.068725585938	3.099925518035889	325.4029541015625	1276.970703125	56.51541137695312	44.44571685791016	1221.058715820312	4.030861377716064	41.10707473754883	1175.640502929688	-39.66183853149414	36.77614212036133	1286.04345703125	-185.1685180664062	61.93435287475586	1211.190185546875	
